# xmcd CD database file
#
# Track frame offsets:
#	150
#	7620
#	19752
#	42830
#	60085
#	74120
#	88170
#	100257
#	115250
#	131622
#	147092
#	170877
#	187897
#	195475
#	216795
#	225115
#
# Disc length: 3212 seconds
#
# Revision: 0
# Processed by: cddbd v1.5.2PL0 Copyright (c) Steve Scherf et al.
# Submitted via: CDex 2.03
#
DISCID=ce0c8a10
DTITLE=Steely Dan - Marian McPartland Piano Jazz
DYEAR=2002
DGENRE=Jazz
TTITLE0=Introduction
TTITLE1=Limbo Jazz
TTITLE2=Conversation 1
TTITLE3=Josie
TTITLE4=Conversation 2
TTITLE5=Mood Indigo
TTITLE6=Conversation 3
TTITLE7=Star Eyes
TTITLE8=Conversation 4
TTITLE9=Hesitation Blues
TTITLE10=Conversation 5
TTITLE11=Things Ain't What They Used to Be
TTITLE12=Conversation 6
TTITLE13=Chain Lightning
TTITLE14=Conversation 7
TTITLE15=Black Friday
EXTD=YEAR: 2002
EXTT0=
EXTT1=
EXTT2=
EXTT3=
EXTT4=
EXTT5=
EXTT6=
EXTT7=
EXTT8=
EXTT9=
EXTT10=
EXTT11=
EXTT12=
EXTT13=
EXTT14=
EXTT15=
PLAYORDER=
